<?xml version="1.0" standalone="no"?>
<!DOCTYPE svg PUBLIC "-//W3C//DTD SVG 20010904//EN"
 "http://www.w3.org/TR/2001/REC-SVG-20010904/DTD/svg10.dtd">
<svg version="1.0" xmlns="http://www.w3.org/2000/svg"
 width="415.000000pt" height="415.000000pt" viewBox="0 0 415.000000 415.000000"
 preserveAspectRatio="xMidYMid meet">
<metadata>
Created by potrace 1.11, written by Peter Selinger 2001-2013
</metadata>
<g transform="translate(0.000000,415.000000) scale(0.100000,-0.100000)"
fill="#000000" stroke="none">
<path d="M1860 3913 c-51 -8 -79 -26 -95 -60 -24 -49 -13 -117 25 -155 25 -25
35 -28 92 -28 67 0 93 10 86 31 -3 9 -22 12 -65 10 -54 -2 -63 0 -77 20 -19
28 -7 39 40 39 63 0 92 11 87 31 -5 16 -12 18 -39 14 -19 -3 -50 -7 -69 -10
-32 -5 -35 -4 -35 18 0 33 16 45 78 53 42 5 52 10 52 25 0 19 -19 22 -80 12z"/>
<path d="M2228 3902 c-5 -19 0 -21 61 -28 36 -3 72 -9 78 -13 8 -4 -20 -32
-77 -76 -112 -87 -116 -106 -25 -117 33 -4 81 -10 108 -13 42 -5 47 -4 47 14
0 16 -9 21 -57 26 -104 11 -104 13 -9 88 63 50 86 75 86 91 0 21 -6 24 -67 30
-38 4 -84 9 -104 12 -30 5 -37 3 -41 -14z"/>
<path d="M1637 3873 c-10 -3 -29 -29 -42 -58 -40 -92 -41 -87 24 -139 54 -42
64 -46 92 -38 l32 8 -66 47 -67 48 35 69 c35 69 34 74 -8 63z"/>
<path d="M2535 3857 c-19 -50 -74 -221 -72 -222 10 -8 150 -45 169 -45 28 0
72 42 87 83 14 37 13 98 -2 118 -27 35 -174 89 -182 66z m100 -61 c21 -9 37
-24 40 -39 7 -26 -18 -96 -38 -109 -17 -11 -61 -10 -91 2 l-25 9 25 76 c28 81
33 84 89 61z"/>
<path d="M1483 3832 c-8 -5 -2 -39 20 -124 29 -107 34 -117 52 -112 11 4 21 8
23 9 3 3 -31 138 -54 218 -6 18 -21 22 -41 9z"/>
<path d="M1278 3749 c-86 -43 -104 -70 -77 -118 24 -43 58 -48 124 -17 51 23
61 25 73 12 23 -23 7 -44 -62 -78 -56 -27 -63 -34 -55 -50 9 -17 15 -15 89 22
83 42 106 66 94 103 -18 61 -57 70 -142 35 -48 -20 -54 -21 -68 -6 -22 22 -12
33 59 69 75 38 69 33 61 53 -8 21 -6 21 -96 -25z"/>
<path d="M2777 3652 l-57 -109 24 -11 c22 -10 25 -7 41 29 21 45 28 46 73 19
37 -23 39 -31 28 -86 -6 -26 -3 -32 17 -41 23 -11 25 -9 36 28 8 28 9 44 1 59
-9 17 -8 20 8 20 32 0 64 43 60 81 -3 31 -10 37 -83 76 -44 23 -83 42 -86 43
-3 0 -31 -49 -62 -108z m137 25 c46 -26 51 -36 32 -62 -13 -18 -15 -18 -60 -1
-56 22 -61 29 -40 61 20 30 19 30 68 2z"/>
<path d="M1077 3638 c-16 -12 -14 -18 33 -82 27 -39 48 -71 46 -74 -2 -2 -44
17 -94 42 -94 47 -92 47 -141 10 -2 -2 29 -48 68 -104 64 -89 74 -99 92 -90
22 12 22 11 -38 94 -23 33 -41 61 -39 63 2 2 44 -15 94 -38 89 -40 92 -41 117
-25 l26 17 -51 72 c-86 123 -92 130 -113 115z"/>
<path d="M3062 3547 c-85 -107 -88 -129 -30 -186 33 -32 82 -48 116 -37 21 7
132 137 132 155 0 5 -8 14 -17 19 -14 8 -28 -4 -76 -64 -37 -47 -66 -74 -78
-74 -23 0 -69 42 -69 64 0 7 25 46 55 84 30 39 55 73 55 76 0 3 -9 10 -19 16
-17 8 -26 1 -69 -53z"/>
<path d="M1895 3489 c-417 -57 -786 -293 -1019 -651 -362 -557 -276 -1305 204
-1778 196 -193 418 -313 700 -378 102 -23 136 -26 300 -26 166 0 197 3 298 27
198 47 373 126 532 241 92 66 270 240 270 263 0 13 -16 50 -26 62 -2 2 -18
-10 -35 -28 -24 -25 -29 -38 -24 -58 4 -16 2 -22 -5 -18 -11 7 -40 -17 -40
-34 0 -7 -18 -10 -44 -9 -44 1 -133 -31 -108 -39 12 -5 18 -33 6 -33 -21 0
-44 24 -44 46 0 30 -23 28 -29 -2 -3 -20 -29 -54 -41 -54 -5 0 -11 12 -15 27
l-6 26 -15 -28 c-8 -15 -14 -47 -14 -71 0 -24 -4 -44 -10 -44 -5 0 -10 11 -10
25 0 14 -4 25 -10 25 -5 0 -10 -16 -10 -35 0 -19 -4 -43 -9 -53 -5 -9 -16 -34
-25 -54 -11 -26 -22 -38 -36 -38 -11 0 -20 5 -20 11 0 6 -7 8 -16 5 -36 -14
-52 57 -18 85 13 10 20 59 9 59 -2 0 -23 -18 -46 -39 -24 -21 -48 -37 -55 -34
-6 2 -15 0 -19 -6 -12 -21 -34 -11 -51 25 -13 26 -14 38 -5 47 8 8 11 8 11 -2
0 -12 38 -50 52 -51 4 0 3 14 -2 31 -11 37 -4 55 15 39 10 -8 15 -6 20 9 3 12
11 21 16 21 5 0 9 7 9 15 0 19 -19 19 -26 0 -9 -22 -34 -18 -34 5 0 11 4 20 8
20 5 0 7 13 4 30 -3 21 0 32 12 36 9 3 16 16 16 29 0 28 -27 41 -33 17 -4 -15
-5 -15 -6 -1 0 9 -8 30 -16 45 -14 28 -14 29 8 32 13 2 31 16 41 33 17 29 17
31 -1 52 -35 41 -40 45 -59 49 -21 4 -34 58 -14 58 7 0 10 7 6 15 -4 12 0 14
19 9 44 -11 41 21 -4 64 l-42 40 -15 -36 c-20 -48 -31 -53 -72 -36 -50 20 -52
19 -45 -32 6 -45 5 -46 -15 -35 -11 6 -30 11 -42 11 -19 0 -21 -4 -16 -32 5
-30 5 -31 -6 -10 -6 12 -17 22 -25 22 -7 0 -13 5 -13 11 0 6 -7 4 -15 -5 -20
-20 -19 -39 4 -53 10 -6 21 -25 23 -42 5 -38 -5 -40 -20 -6 -8 16 -23 28 -43
32 -19 3 -34 14 -36 25 -7 25 -18 23 -32 -8 -9 -20 -17 -25 -33 -21 -12 4 -28
1 -35 -5 -10 -8 -16 -4 -25 18 -16 36 -40 41 -53 11 -6 -12 -14 -21 -20 -20
-14 4 -19 75 -5 83 15 9 22 130 8 130 -6 0 -8 11 -4 28 4 15 7 34 8 42 0 8 8
23 16 33 14 16 14 19 2 28 -8 5 -23 7 -32 5 -10 -2 -18 0 -18 5 0 5 -7 9 -15
9 -20 0 -62 41 -67 66 -2 10 -13 20 -25 22 -21 3 -36 32 -24 48 7 11 57 11 67
1 13 -13 24 -7 24 12 0 19 -36 51 -72 64 -21 7 -23 43 -7 84 11 26 12 26 18 8
4 -11 15 -36 24 -55 12 -26 16 -30 17 -15 1 19 1 19 14 2 8 -10 28 -21 45 -23
25 -4 31 -2 32 13 0 12 4 9 11 -9 14 -39 48 -37 72 2 24 42 65 82 77 75 16
-10 10 -73 -7 -83 -15 -8 -15 -11 1 -36 10 -14 21 -26 26 -26 17 0 39 46 39
81 0 47 8 69 26 69 7 0 16 12 20 28 11 52 14 57 39 85 14 15 22 27 18 27 -4 0
-2 4 6 9 19 12 10 23 -43 50 -26 12 -44 27 -41 32 9 13 -24 10 -70 -6 -47 -17
-115 -20 -115 -5 0 6 8 14 17 17 10 4 30 18 46 32 16 14 38 28 50 31 12 3 27
16 32 28 8 20 15 22 43 17 37 -7 42 7 12 32 -20 17 -20 17 3 38 12 11 35 36
50 55 16 19 41 42 55 51 32 19 40 59 16 87 -16 19 -17 19 -49 -14 -47 -48 -87
-47 -131 3 -39 43 -59 118 -44 158 16 43 11 70 -17 97 -52 48 -147 62 -217 33
-58 -24 -76 -49 -76 -100 0 -32 -11 -67 -36 -118 -19 -39 -39 -76 -44 -81 -12
-12 -58 19 -72 50 -15 31 -35 30 -71 -3 -25 -25 -29 -25 -25 -8 2 11 16 26 31
33 15 7 27 17 27 23 0 14 -17 11 -34 -6 -8 -8 -22 -15 -31 -15 -14 0 -14 4 4
26 31 40 26 85 -6 53 -8 -8 -16 -7 -31 2 -15 10 -24 10 -34 1 -23 -18 -41 2
-35 39 10 70 22 84 96 119 24 12 51 30 60 41 10 12 33 21 61 23 52 5 85 17
120 45 19 15 25 29 25 60 0 22 -3 42 -5 44 -13 12 -73 -7 -77 -24 -3 -11 -10
-19 -15 -19 -6 0 -22 -13 -37 -29 -15 -16 -54 -40 -87 -52 -37 -15 -63 -32
-69 -46 -13 -31 -21 -29 -34 7 -7 22 -16 30 -33 30 -35 0 -48 -19 -48 -66 0
-24 -4 -46 -10 -49 -5 -3 -10 -21 -10 -40 0 -47 -27 -170 -45 -205 -30 -59
-10 -279 29 -311 31 -27 55 -23 92 16 33 35 54 44 54 24 0 -6 19 -29 42 -50
36 -33 42 -43 40 -74 -2 -19 1 -35 5 -36 47 -4 92 -36 93 -64 1 -26 28 -85 29
-64 1 9 8 20 17 23 21 8 24 8 24 -5 0 -17 -27 -39 -49 -39 -12 0 -26 -9 -33
-20 -13 -20 -38 -28 -38 -11 0 5 7 16 15 24 12 13 12 15 -5 20 -26 7 -36 -30
-21 -73 6 -18 6 -28 1 -25 -6 4 -10 -3 -10 -14 0 -12 5 -21 12 -21 6 0 9 3 5
6 -3 3 -1 12 6 18 9 10 17 9 39 -3 28 -15 29 -15 48 9 17 22 19 22 15 5 -14
-73 -14 -84 0 -78 9 3 15 -1 15 -9 0 -8 -21 -24 -47 -35 -71 -31 -86 -35 -92
-25 -3 5 -36 12 -72 15 -62 5 -67 4 -79 -17 -10 -20 -9 -30 11 -65 13 -22 29
-41 36 -41 6 0 18 -9 26 -21 11 -15 24 -20 49 -18 18 2 41 -2 51 -7 16 -9 16
-12 4 -23 -10 -8 -17 -9 -22 -1 -10 17 -36 12 -34 -7 2 -10 -11 -33 -29 -52
-18 -18 -32 -39 -32 -46 0 -7 -9 -15 -21 -18 -11 -3 -19 -11 -18 -19 2 -7 -1
-23 -5 -36 -9 -28 18 -58 51 -54 13 2 23 -2 23 -9 0 -23 -35 -88 -47 -89 -14
0 -39 -81 -48 -155 -11 -84 -16 -105 -29 -105 -15 0 -33 63 -46 166 -6 45 -15
96 -20 115 -6 19 -10 68 -10 110 0 42 -4 89 -9 105 -5 16 -12 41 -15 57 -8 34
-29 35 -44 2 -9 -20 -15 -23 -29 -16 -10 5 -26 12 -36 15 -23 7 -19 45 7 60
14 8 20 8 23 -1 3 -7 11 -13 20 -13 8 0 20 6 26 13 16 16 20 97 6 113 -6 8
-11 85 -12 201 -2 164 -4 188 -18 187 -13 -1 -15 8 -11 55 2 31 10 61 18 67 8
6 14 17 14 24 0 7 7 10 16 6 13 -5 15 -1 9 21 -3 15 -10 30 -13 33 -4 3 -13
18 -20 33 -6 15 -16 33 -22 40 -63 75 -85 158 -70 272 5 43 8 87 5 96 -4 10 7
29 27 50 35 36 55 98 63 194 9 104 16 113 98 130 19 4 27 11 24 19 -6 15 22
46 41 46 6 0 15 7 20 15 4 9 26 18 48 22 21 3 46 14 55 24 8 10 38 25 65 34
27 9 56 19 64 24 34 19 159 44 220 44 98 0 223 -12 234 -23 6 -6 18 -10 28
-10 10 0 26 -4 36 -9 9 -5 33 -16 52 -25 19 -9 53 -27 75 -41 22 -14 50 -29
61 -34 12 -5 34 -21 49 -35 15 -14 36 -26 46 -26 10 0 20 -4 23 -9 3 -4 19
-11 36 -15 22 -4 30 -11 28 -23 -2 -14 5 -19 30 -21 17 -2 32 -6 32 -10 0 -4
14 -13 30 -20 28 -13 30 -17 30 -73 0 -33 -6 -68 -12 -79 -10 -16 -10 -24 0
-40 6 -11 12 -35 12 -55 0 -24 4 -33 13 -29 7 2 24 -5 37 -16 19 -16 21 -23
11 -29 -9 -6 -11 -23 -5 -67 6 -54 6 -58 -10 -45 -9 7 -16 24 -16 38 0 13 -4
22 -9 19 -5 -4 -3 -27 5 -53 8 -27 14 -68 12 -93 -1 -25 1 -55 6 -67 4 -13 2
-31 -4 -42 -12 -23 -5 -40 43 -102 15 -20 27 -47 27 -58 0 -12 9 -31 20 -43
11 -12 20 -34 20 -49 0 -15 4 -29 8 -31 5 -1 23 -24 41 -50 28 -42 37 -48 66
-48 l35 0 0 -54 c0 -47 4 -59 30 -84 17 -17 30 -35 30 -41 0 -5 14 -25 31 -43
17 -18 37 -45 45 -60 8 -15 23 -32 34 -38 11 -6 20 -17 20 -26 0 -8 8 -23 18
-34 10 -10 23 -38 30 -62 6 -24 22 -56 34 -71 13 -16 33 -41 46 -57 12 -16 27
-53 34 -84 13 -68 17 -65 79 75 133 302 152 683 49 999 -162 495 -586 868
-1100 965 -103 20 -339 27 -435 14z m175 -1032 c0 -13 -11 -34 -25 -47 -14
-13 -25 -31 -25 -41 0 -23 -42 -49 -80 -49 -35 0 -39 12 -9 32 12 8 27 29 33
48 8 24 23 41 51 57 50 28 55 28 55 0z m-870 -67 c0 -5 -2 -10 -4 -10 -3 0 -8
5 -11 10 -3 6 -1 10 4 10 6 0 11 -4 11 -10z m684 -25 c6 -18 -2 -45 -15 -45
-5 0 -9 14 -9 30 0 32 14 40 24 15z m-672 -27 c-8 -8 -9 -4 -5 13 4 13 8 18
11 10 2 -7 -1 -18 -6 -23z m-16 -55 c-10 -10 -19 5 -10 18 6 11 8 11 12 0 2
-7 1 -15 -2 -18z m558 -25 c7 -12 7 -21 0 -28 -12 -12 -58 26 -48 41 9 14 35
7 48 -13z m210 -254 c3 -8 2 -12 -4 -9 -6 3 -10 10 -10 16 0 14 7 11 14 -7z
m-359 -464 c4 -6 -7 -10 -25 -10 -18 0 -29 4 -25 10 3 6 15 10 25 10 10 0 22
-4 25 -10z m-485 -50 c0 -16 -7 -20 -30 -20 -23 0 -30 4 -30 20 0 16 7 20 30
20 23 0 30 -4 30 -20z m64 -87 c3 -10 9 -25 12 -33 5 -12 4 -13 -7 -2 -7 6
-21 12 -31 12 -20 0 -25 26 -5 33 21 9 24 8 31 -10z m844 -219 c16 -11 22 -25
22 -55 0 -52 -14 -49 -40 7 -29 68 -26 79 18 48z m-652 -231 c-10 -10 -19 5
-10 18 6 11 8 11 12 0 2 -7 1 -15 -2 -18z m608 -7 c-3 -9 -10 -16 -15 -16 -5
0 -4 9 3 20 14 22 21 20 12 -4z m-154 0 c0 -3 -4 -8 -10 -11 -5 -3 -10 -1 -10
4 0 6 5 11 10 11 6 0 10 -2 10 -4z"/>
<path d="M3430 3403 c0 -37 16 -53 53 -53 25 0 28 2 17 15 -7 9 -21 13 -31 10
-15 -5 -19 -1 -19 19 0 14 -4 28 -10 31 -6 4 -10 -6 -10 -22z"/>
<path d="M3324 3409 c-3 -6 17 -34 45 -63 28 -28 51 -55 51 -59 0 -4 -51 -7
-114 -7 -158 0 -163 -7 -65 -106 65 -66 75 -72 88 -59 14 13 9 21 -39 70 l-54
55 116 0 c157 0 161 6 73 105 -66 73 -87 86 -101 64z"/>
<path d="M756 3381 c-17 -19 -15 -24 34 -138 29 -65 54 -120 56 -122 2 -2 12
4 23 13 16 15 17 22 8 52 -10 32 -8 37 21 66 29 29 34 31 66 21 30 -9 37 -8
52 8 9 11 15 21 13 23 -6 5 -241 96 -249 96 -4 0 -15 -9 -24 -19z m94 -57 c22
-9 40 -19 40 -23 0 -4 -11 -18 -25 -31 l-25 -23 -16 39 c-9 21 -18 42 -21 47
-6 10 2 9 47 -9z"/>
<path d="M622 3228 c-7 -7 -12 -15 -12 -19 0 -8 190 -163 194 -157 1 1 7 10
14 20 11 14 1 26 -82 92 -53 42 -97 76 -99 76 -2 0 -8 -5 -15 -12z"/>
<path d="M3438 3135 c-68 -46 -76 -100 -27 -177 33 -50 36 -53 57 -39 11 6 7
19 -17 56 -36 57 -36 56 -13 85 l18 22 39 -60 c33 -50 42 -58 56 -49 16 10 13
16 -23 70 -32 47 -38 61 -27 68 26 17 54 4 88 -43 20 -27 40 -44 48 -41 21 8
16 24 -25 78 -35 47 -41 50 -87 53 -40 2 -57 -2 -87 -23z"/>
<path d="M473 3124 c3 -20 -1 -27 -19 -34 -32 -12 -31 -29 1 -22 30 5 46 31
38 60 -8 31 -26 27 -20 -4z"/>
<path d="M518 3080 c-16 -28 -28 -65 -28 -84 0 -74 123 -142 191 -105 11 5 36
35 56 66 28 44 32 57 22 64 -22 14 -26 11 -53 -35 -37 -64 -73 -70 -138 -24
-35 24 -36 58 -4 115 20 35 22 43 9 47 -24 10 -27 8 -55 -44z"/>
<path d="M2097 3083 c-14 -13 -7 -60 12 -79 26 -29 76 -47 106 -40 42 11 27
44 -46 99 -35 27 -59 33 -72 20z"/>
<path d="M3585 2919 c-60 -27 -110 -51 -112 -53 -6 -6 9 -36 19 -36 5 0 43 16
85 35 42 19 77 34 79 32 1 -1 -24 -38 -57 -82 -48 -64 -59 -85 -54 -105 4 -14
9 -28 13 -31 4 -4 54 15 112 42 58 27 109 50 114 52 5 2 4 13 -3 24 -11 22
-11 22 -93 -17 -46 -21 -84 -37 -86 -35 -2 1 25 39 59 84 61 80 62 82 48 111
l-14 30 -110 -51z"/>
<path d="M2444 2893 c4 -21 16 -62 27 -91 18 -43 21 -66 17 -124 -3 -38 -10
-73 -15 -77 -6 -3 -13 -18 -17 -33 -3 -16 -13 -28 -21 -28 -8 0 -16 -6 -16
-12 -4 -38 -18 -78 -27 -78 -4 0 -13 9 -20 20 -17 28 -60 26 -71 -3 -5 -13
-16 -29 -25 -36 -19 -16 -22 -61 -4 -61 6 0 21 9 33 20 l21 20 47 -30 c26 -16
47 -36 47 -45 0 -17 46 -22 52 -5 4 12 49 -26 72 -62 l17 -26 25 25 c39 39 50
96 34 186 -7 43 -18 77 -24 77 -7 0 -6 3 2 8 10 7 9 16 -3 45 -19 46 -30 48
-21 5 l6 -33 -15 25 c-17 29 -19 60 -5 60 16 0 11 58 -9 100 -13 27 -15 42 -8
49 7 7 5 16 -9 28 -23 22 -41 48 -57 86 -18 42 -39 35 -33 -10z"/>
<path d="M417 2878 c-9 -7 -32 -49 -50 -94 l-35 -80 67 -26 c36 -14 89 -35
118 -46 l51 -21 31 77 c17 42 31 86 31 98 0 32 -33 56 -71 52 -25 -2 -39 3
-60 25 -30 29 -56 34 -82 15z m61 -73 c2 -11 -4 -37 -13 -57 -14 -35 -16 -37
-45 -27 -16 6 -30 12 -30 14 0 2 9 24 20 50 16 38 24 46 42 43 14 -2 24 -11
26 -23z m99 -30 c3 -9 -2 -36 -11 -60 -17 -42 -18 -43 -47 -33 -32 11 -32 22
-2 81 15 30 50 37 60 12z"/>
<path d="M3683 2652 c-57 -20 -103 -41 -103 -47 1 -35 17 -34 126 1 60 20 113
40 117 44 12 11 -4 40 -22 39 -9 0 -62 -17 -118 -37z"/>
<path d="M1196 2603 c-8 -61 -4 -83 15 -83 11 0 11 49 0 105 l-7 40 -8 -62z"/>
<path d="M321 2579 c-28 -27 -41 -60 -41 -109 0 -55 8 -68 51 -90 53 -27 128
-27 158 1 47 44 57 140 19 177 -50 46 -148 58 -187 21z m144 -53 c32 -21 35
-74 5 -101 -24 -22 -101 -16 -130 10 -25 22 -26 72 -3 98 21 23 88 19 128 -7z"/>
<path d="M3723 2550 c-80 -19 -102 -56 -87 -149 7 -46 13 -57 31 -59 20 -3 21
-1 12 35 -13 56 -11 80 7 98 24 23 37 14 46 -31 16 -79 18 -84 38 -84 23 0 23
-3 6 78 l-14 62 29 0 c32 0 44 -16 54 -77 5 -34 11 -43 27 -43 18 0 20 4 13
47 -4 25 -11 56 -15 69 -17 44 -85 69 -147 54z"/>
<path d="M2190 1836 c0 -8 5 -18 10 -21 6 -4 8 -11 5 -16 -4 -5 1 -9 9 -9 8 0
16 -10 18 -22 2 -15 11 -24 26 -26 19 -3 22 1 22 32 0 23 -5 36 -13 36 -7 0
-19 9 -27 20 -17 23 -50 27 -50 6z"/>
<path d="M2352 1724 c1 -9 9 -19 16 -22 9 -3 13 2 10 14 -1 9 -9 19 -16 22 -9
3 -13 -2 -10 -14z"/>
<path d="M1425 1610 c3 -5 13 -10 21 -10 8 0 14 5 14 10 0 6 -9 10 -21 10 -11
0 -17 -4 -14 -10z"/>
<path d="M2116 1593 c-3 -4 -6 -17 -6 -30 0 -12 -4 -23 -10 -23 -5 0 -10 -10
-9 -22 l0 -23 11 23 c16 32 28 27 28 -10 0 -18 7 -42 15 -52 8 -11 15 -16 15
-11 0 5 6 0 14 -11 24 -33 28 -9 10 65 -12 50 -24 75 -39 85 -13 8 -25 12 -29
9z"/>
<path d="M3417 1184 c-17 -23 -17 -26 4 -99 l22 -75 77 0 c72 0 79 2 94 25
l16 25 -78 0 -78 0 -20 74 -19 74 -18 -24z"/>
<path d="M703 1173 c-18 -7 -16 -21 7 -53 l20 -28 -84 -58 c-71 -49 -83 -61
-75 -76 5 -10 13 -18 17 -18 4 0 43 25 87 55 l80 56 26 -32 c24 -29 49 -33 49
-8 0 8 -92 143 -109 160 -3 4 -12 4 -18 2z"/>
<path d="M2603 1110 c8 -74 14 -85 33 -65 34 34 58 9 29 -29 -8 -11 -15 -28
-15 -38 0 -28 29 -21 41 10 6 15 15 35 20 44 12 23 11 48 -1 48 -5 0 -10 9
-10 19 0 24 -16 36 -24 19 -3 -10 -8 -9 -15 3 -6 9 -23 24 -37 34 l-27 17 6
-62z"/>
<path d="M2524 1126 c-7 -20 2 -46 16 -46 13 0 13 47 0 55 -6 3 -13 -1 -16 -9z"/>
<path d="M3324 1053 c-10 -15 2 -27 85 -85 53 -38 99 -68 102 -68 10 0 32 30
26 36 -11 11 -191 134 -196 134 -4 0 -11 -8 -17 -17z"/>
<path d="M2557 1023 c-11 -11 -8 -31 6 -36 10 -4 13 2 9 19 -5 26 -6 27 -15
17z"/>
<path d="M750 957 c-14 -12 -42 -36 -63 -53 -26 -21 -36 -36 -31 -47 9 -25 20
-21 75 25 46 39 51 40 66 25 13 -12 14 -19 4 -30 -11 -14 -6 -47 9 -47 12 0
40 36 40 51 0 15 -60 99 -70 99 -3 0 -16 -11 -30 -23z"/>
<path d="M2530 965 c0 -8 5 -15 10 -15 6 0 10 7 10 15 0 8 -4 15 -10 15 -5 0
-10 -7 -10 -15z"/>
<path d="M3229 942 c-21 -21 -41 -51 -45 -67 -14 -58 62 -145 128 -145 66 0
128 62 128 129 0 26 -9 43 -44 77 -38 38 -49 44 -86 44 -36 0 -48 -6 -81 -38z
m108 -22 c44 -27 67 -73 52 -103 -31 -56 -65 -60 -119 -11 -47 43 -51 74 -15
109 29 30 40 31 82 5z"/>
<path d="M2570 881 c0 -5 7 -14 15 -21 16 -14 18 -10 9 14 -6 17 -24 22 -24 7z"/>
<path d="M824 806 c-46 -46 -44 -76 5 -129 32 -34 42 -40 52 -30 10 10 6 20
-20 47 -23 24 -32 40 -27 52 6 15 12 12 46 -21 31 -30 43 -36 52 -27 9 9 3 21
-27 52 -33 34 -36 40 -21 46 12 5 28 -4 52 -27 29 -28 36 -31 44 -19 8 11 0
24 -30 53 -50 47 -81 48 -126 3z"/>
<path d="M3040 775 c-10 -13 -6 -24 30 -70 89 -115 116 -123 197 -62 36 27 40
34 28 46 -12 12 -20 10 -54 -13 -22 -16 -47 -26 -55 -23 -8 3 -38 34 -66 69
-29 35 -56 64 -60 66 -4 1 -13 -4 -20 -13z"/>
<path d="M957 685 c-52 -72 -53 -77 -33 -94 11 -9 21 -1 52 41 21 29 39 55 41
57 7 10 53 -24 53 -39 0 -10 -16 -38 -36 -64 -34 -45 -35 -48 -17 -61 16 -12
20 -11 36 8 38 47 68 107 63 125 -5 14 -96 92 -108 92 -2 0 -25 -29 -51 -65z"/>
<path d="M2978 729 c-15 -8 -12 -18 32 -86 28 -41 50 -81 50 -88 0 -6 -11 -22
-24 -34 -39 -37 -65 -25 -119 54 -52 76 -55 79 -76 66 -13 -8 -12 -15 5 -46
30 -57 87 -127 109 -135 29 -11 96 14 123 45 34 40 28 78 -25 161 -25 41 -49
74 -52 74 -3 0 -14 -5 -23 -11z"/>
<path d="M1234 655 c11 -43 27 -51 74 -38 18 4 20 8 10 14 -7 4 -23 6 -35 2
-16 -3 -23 -1 -23 10 0 8 -7 21 -17 28 -15 13 -16 11 -9 -16z"/>
<path d="M2709 577 c-65 -32 -84 -46 -81 -59 4 -21 9 -22 42 -3 14 8 29 14 33
15 5 0 26 -39 49 -87 22 -49 41 -89 43 -91 2 -2 12 1 23 7 20 11 20 13 -19 96
-21 47 -39 89 -39 93 0 5 16 16 35 25 24 11 33 21 29 32 -9 21 -18 19 -115
-28z"/>
<path d="M1126 579 c-33 -39 -35 -88 -3 -116 29 -27 83 -54 91 -46 12 12 6 22
-28 42 -43 27 -50 45 -31 82 17 33 45 37 85 14 32 -18 50 -19 50 -2 0 19 -72
57 -108 57 -21 0 -38 -9 -56 -31z"/>
<path d="M1344 595 c-7 -18 3 -35 22 -35 20 0 30 30 13 41 -20 12 -29 11 -35
-6z"/>
<path d="M2506 565 c-18 -18 -21 -35 -6 -35 11 0 34 39 27 46 -3 3 -12 -2 -21
-11z"/>
<path d="M1287 473 c-32 -70 -34 -79 -20 -90 9 -7 19 -11 22 -8 4 2 22 38 40
80 28 63 32 78 20 86 -8 5 -17 9 -20 9 -3 0 -22 -35 -42 -77z"/>
<path d="M2576 521 c-4 -5 4 -49 16 -96 l23 -87 -24 -19 c-28 -23 -64 -25 -81
-4 -7 8 -23 50 -35 92 -19 65 -26 77 -41 75 -11 -2 -21 -6 -23 -8 -2 -2 7 -41
20 -86 30 -108 53 -133 117 -124 54 7 89 28 104 62 15 33 -29 197 -54 202 -9
2 -19 -1 -22 -7z"/>
<path d="M1406 503 c-14 -14 -4 -25 40 -44 69 -31 78 -73 9 -45 -54 23 -82 20
-101 -9 -15 -22 -15 -27 -1 -48 8 -13 44 -34 80 -49 l65 -25 21 54 c24 62 27
106 8 121 -19 16 -114 51 -121 45z m49 -125 c27 -12 29 -16 17 -34 -10 -16
-82 13 -82 32 0 17 30 18 65 2z"/>
<path d="M1970 348 c0 -57 -3 -113 -6 -125 -5 -20 -2 -23 20 -23 23 0 26 4 26
36 0 34 1 35 33 32 28 -3 32 -7 35 -35 3 -25 8 -33 23 -33 18 0 20 6 17 48 -3
40 -6 47 -25 50 -31 4 -29 15 7 45 27 23 28 25 9 30 -14 4 -33 -6 -61 -31
l-41 -37 7 73 7 72 -25 0 -26 0 0 -102z"/>
<path d="M1580 398 c-6 -24 -15 -59 -21 -78 -12 -47 -12 -47 11 -53 16 -4 22
2 30 36 22 86 26 92 51 89 40 -5 44 -17 28 -86 l-16 -64 23 -5 c21 -4 24 2 39
64 21 85 13 103 -57 124 -72 21 -76 20 -88 -27z"/>
<path d="M1783 379 c-7 -7 -13 -25 -13 -40 0 -34 14 -45 67 -54 47 -7 56 -14
44 -33 -6 -10 -22 -11 -64 -4 -49 8 -56 7 -60 -8 -4 -14 4 -19 41 -24 80 -11
110 -8 122 13 24 45 3 75 -59 85 -43 7 -54 15 -42 34 5 8 22 9 58 3 42 -6 53
-5 58 7 3 8 4 16 2 18 -2 2 -34 6 -73 10 -50 4 -72 2 -81 -7z"/>
<path d="M2274 318 l1 -73 -30 0 c-29 0 -30 1 -39 68 -8 59 -12 67 -30 67 -21
0 -21 -3 -15 -70 8 -88 18 -100 81 -100 69 0 58 -22 -15 -34 -38 -5 -57 -13
-57 -22 0 -17 58 -19 112 -4 47 13 51 29 43 146 -7 89 -9 94 -30 94 -22 0 -23
-3 -21 -72z"/>
</g>
</svg>
